HIERARCHY
ROOT Hips
{
	OFFSET 0.000000 83.214638 0.000000
	CHANNELS 6 Xposition Yposition Zposition Xrotation Yrotation Zrotation
	JOINT Pelvis
	{
		OFFSET 0.000000 0.000000 0.000000
		CHANNELS 3 Xrotation Yrotation Zrotation
		JOINT LeftUpLeg
		{
			OFFSET 8.479700 -4.795502 -0.379100
			CHANNELS 3 Xrotation Yrotation Zrotation
			JOINT LeftLeg
			{
				OFFSET 0.024144 -32.555107 0.112900
				CHANNELS 3 Xrotation Yrotation Zrotation
				JOINT LeftFoot
				{
					OFFSET -0.024144 -32.638630 -3.012600
					CHANNELS 3 Xrotation Yrotation Zrotation
					JOINT LeftToeBase
					{
						OFFSET 0.970200 -13.225400 11.864200
						CHANNELS 3 Xrotation Yrotation Zrotation
						End Site
						{
							OFFSET 0.000000 12.319262 0.000000
						}
					}
					JOINT LFootTongue
					{
						OFFSET 1.142400 -1.059800 6.665200
						CHANNELS 3 Xrotation Yrotation Zrotation
						End Site
						{
							OFFSET 0.000000 12.319262 0.000000
						}
					}
				}
				JOINT LeftPantLeg
				{
					OFFSET 0.918482 -16.533964 -2.284700
					CHANNELS 3 Xrotation Yrotation Zrotation
					End Site
					{
						OFFSET 0.350399 24.744368 0.000000
					}
				}
			}
		}
		JOINT RightUpLeg
		{
			OFFSET -8.479700 -4.795502 -0.379100
			CHANNELS 3 Xrotation Yrotation Zrotation
			JOINT RightLeg
			{
				OFFSET -0.023144 -32.555092 0.112900
				CHANNELS 3 Xrotation Yrotation Zrotation
				JOINT RightFoot
				{
					OFFSET 0.023144 -32.638641 -3.012700
					CHANNELS 3 Xrotation Yrotation Zrotation
					JOINT RightToeBase
					{
						OFFSET -0.970200 -13.225400 11.864200
						CHANNELS 3 Xrotation Yrotation Zrotation
						End Site
						{
							OFFSET 0.000000 12.319244 0.000000
						}
					}
					JOINT RFootTongue
					{
						OFFSET -1.142200 -1.059800 6.665200
						CHANNELS 3 Xrotation Yrotation Zrotation
						End Site
						{
							OFFSET 0.000000 12.319243 0.000000
						}
					}
				}
				JOINT RightPantLeg
				{
					OFFSET -0.919482 -16.533978 -2.284800
					CHANNELS 3 Xrotation Yrotation Zrotation
					End Site
					{
						OFFSET -0.350400 24.744419 0.000000
					}
				}
			}
		}
	}
	JOINT Spine
	{
		OFFSET 0.000000 7.722000 1.166200
		CHANNELS 3 Xrotation Yrotation Zrotation
		JOINT Spine1
		{
			OFFSET 0.000000 12.024101 0.248800
			CHANNELS 3 Xrotation Yrotation Zrotation
			JOINT Spine2
			{
				OFFSET 0.000000 11.502998 -0.491200
				CHANNELS 3 Xrotation Yrotation Zrotation
				JOINT Neck
				{
					OFFSET 0.000000 18.430702 -3.123100
					CHANNELS 3 Xrotation Yrotation Zrotation
					JOINT Head
					{
						OFFSET 0.000000 9.051102 1.034000
						CHANNELS 3 Xrotation Yrotation Zrotation
						JOINT HairB
						{
							OFFSET 0.208400 24.786102 24.822300
							CHANNELS 3 Xrotation Yrotation Zrotation
							End Site
							{
								OFFSET 0.000000 32.263779 0.000000
							}
						}
						JOINT HairA
						{
							OFFSET -7.081100 24.428299 23.196600
							CHANNELS 3 Xrotation Yrotation Zrotation
							End Site
							{
								OFFSET 0.000000 32.263779 0.000000
							}
						}
						JOINT Hat
						{
							OFFSET 16.728800 15.048294 -15.439601
							CHANNELS 3 Xrotation Yrotation Zrotation
							End Site
							{
								OFFSET 0.000000 32.263779 0.000000
							}
						}
					}
				}
				JOINT LeftShoulder
				{
					OFFSET 6.197800 13.665199 -4.064700
					CHANNELS 3 Xrotation Yrotation Zrotation
					JOINT LeftArm
					{
						OFFSET 7.778100 -0.187103 -1.709300
						CHANNELS 3 Xrotation Yrotation Zrotation
						JOINT LeftForeArm
						{
							OFFSET 22.049376 0.000000 0.000000
							CHANNELS 3 Xrotation Yrotation Zrotation
							JOINT LeftHand
							{
								OFFSET 23.009392 0.000000 0.000000
								CHANNELS 3 Xrotation Yrotation Zrotation
								JOINT LeftHandThumb1
								{
									OFFSET 3.507191 -2.063065 3.133727
									CHANNELS 3 Xrotation Yrotation Zrotation
									JOINT LeftHandThumb2
									{
										OFFSET 3.101337 -1.790558 1.790558
										CHANNELS 3 Xrotation Yrotation Zrotation
										JOINT LeftHandThumb3
										{
											OFFSET 3.058640 -1.765907 1.765906
											CHANNELS 3 Xrotation Yrotation Zrotation
											End Site
											{
												OFFSET -0.415260 3.926476 -0.049563
											}
										}
									}
								}
								JOINT LeftHandIndex1
								{
									OFFSET 11.334419 -0.901459 3.706815
									CHANNELS 3 Xrotation Yrotation Zrotation
									JOINT LeftHandIndex2
									{
										OFFSET 3.283112 0.000000 0.000000
										CHANNELS 3 Xrotation Yrotation Zrotation
										JOINT LeftHandIndex3
										{
											OFFSET 3.323853 0.000000 0.000000
											CHANNELS 3 Xrotation Yrotation Zrotation
											End Site
											{
												OFFSET -1.135597 3.097809 0.402452
											}
										}
									}
								}
								JOINT LeftHandMiddle1
								{
									OFFSET 11.335861 0.000000 0.000000
									CHANNELS 3 Xrotation Yrotation Zrotation
									JOINT LeftHandMiddle2
									{
										OFFSET 3.410492 0.000000 0.000000
										CHANNELS 3 Xrotation Yrotation Zrotation
										JOINT LeftHandMiddle3
										{
											OFFSET 3.312172 0.000000 0.000000
											CHANNELS 3 Xrotation Yrotation Zrotation
											End Site
											{
												OFFSET -1.150200 3.080154 0.400270
											}
										}
									}
								}
								JOINT LeftHandRing1
								{
									OFFSET 11.514786 -0.013176 -3.003090
									CHANNELS 3 Xrotation Yrotation Zrotation
									JOINT LeftHandRing2
									{
										OFFSET 3.053307 0.000000 0.000000
										CHANNELS 3 Xrotation Yrotation Zrotation
										JOINT LeftHandRing3
										{
											OFFSET 3.295807 0.000000 0.000000
											CHANNELS 3 Xrotation Yrotation Zrotation
											End Site
											{
												OFFSET -1.281006 3.013344 0.375733
											}
										}
									}
								}
								JOINT LeftHandPinky1
								{
									OFFSET 10.518692 -0.960396 -5.730441
									CHANNELS 3 Xrotation Yrotation Zrotation
									JOINT LeftHandPinky2
									{
										OFFSET 2.861649 0.000000 0.000000
										CHANNELS 3 Xrotation Yrotation Zrotation
										JOINT LeftHandPinky3
										{
											OFFSET 2.863380 0.000000 0.000000
											CHANNELS 3 Xrotation Yrotation Zrotation
											End Site
											{
												OFFSET -0.843597 2.711159 0.369971
											}
										}
									}
								}
							}
							JOINT LSleeve
							{
								OFFSET 6.676277 -0.344902 -1.011730
								CHANNELS 3 Xrotation Yrotation Zrotation
								End Site
								{
									OFFSET 0.000000 14.885353 0.000000
								}
							}
						}
					}
				}
				JOINT RightShoulder
				{
					OFFSET -6.197800 13.665199 -4.064700
					CHANNELS 3 Xrotation Yrotation Zrotation
					JOINT RightArm
					{
						OFFSET -7.778100 -0.187103 -1.709300
						CHANNELS 3 Xrotation Yrotation Zrotation
						JOINT RightForeArm
						{
							OFFSET -22.049376 0.000000 0.000000
							CHANNELS 3 Xrotation Yrotation Zrotation
							JOINT RightHand
							{
								OFFSET -23.009392 0.000000 0.000000
								CHANNELS 3 Xrotation Yrotation Zrotation
								JOINT RightHandThumb1
								{
									OFFSET -3.507191 -2.063065 3.133727
									CHANNELS 3 Xrotation Yrotation Zrotation
									JOINT RightHandThumb2
									{
										OFFSET -3.101337 -1.790558 1.790558
										CHANNELS 3 Xrotation Yrotation Zrotation
										JOINT RightHandThumb3
										{
											OFFSET -3.058640 -1.765907 1.765906
											CHANNELS 3 Xrotation Yrotation Zrotation
											End Site
											{
												OFFSET 0.415260 3.926476 -0.049563
											}
										}
									}
								}
								JOINT RightHandIndex1
								{
									OFFSET -11.334419 -0.901459 3.706815
									CHANNELS 3 Xrotation Yrotation Zrotation
									JOINT RightHandIndex2
									{
										OFFSET -3.283112 0.000000 0.000000
										CHANNELS 3 Xrotation Yrotation Zrotation
										JOINT RightHandIndex3
										{
											OFFSET -3.323853 0.000000 0.000000
											CHANNELS 3 Xrotation Yrotation Zrotation
											End Site
											{
												OFFSET 1.135597 3.097809 0.402452
											}
										}
									}
								}
								JOINT RightHandMiddle1
								{
									OFFSET -11.335861 0.000000 0.000000
									CHANNELS 3 Xrotation Yrotation Zrotation
									JOINT RightHandMiddle2
									{
										OFFSET -3.410492 0.000000 0.000000
										CHANNELS 3 Xrotation Yrotation Zrotation
										JOINT RightHandMiddle3
										{
											OFFSET -3.312172 0.000000 0.000000
											CHANNELS 3 Xrotation Yrotation Zrotation
											End Site
											{
												OFFSET 1.150200 3.080154 0.400270
											}
										}
									}
								}
								JOINT RightHandRing1
								{
									OFFSET -11.514786 -0.013176 -3.003090
									CHANNELS 3 Xrotation Yrotation Zrotation
									JOINT RightHandRing2
									{
										OFFSET -3.053307 0.000000 0.000000
										CHANNELS 3 Xrotation Yrotation Zrotation
										JOINT RightHandRing3
										{
											OFFSET -3.295807 0.000000 0.000000
											CHANNELS 3 Xrotation Yrotation Zrotation
											End Site
											{
												OFFSET 1.281006 3.013344 0.375733
											}
										}
									}
								}
								JOINT RightHandPinky1
								{
									OFFSET -10.518692 -0.960396 -5.730441
									CHANNELS 3 Xrotation Yrotation Zrotation
									JOINT RightHandPinky2
									{
										OFFSET -2.861649 0.000000 0.000000
										CHANNELS 3 Xrotation Yrotation Zrotation
										JOINT RightHandPinky3
										{
											OFFSET -2.863380 0.000000 0.000000
											CHANNELS 3 Xrotation Yrotation Zrotation
											End Site
											{
												OFFSET 0.843597 2.711159 0.369971
											}
										}
									}
								}
							}
							JOINT RSleeve
							{
								OFFSET -6.676277 -0.344902 -1.011730
								CHANNELS 3 Xrotation Yrotation Zrotation
								End Site
								{
									OFFSET 0.000000 14.885353 0.000000
								}
							}
						}
					}
				}
				JOINT Backpack
				{
					OFFSET 0.000000 -2.471497 36.677502
					CHANNELS 3 Xrotation Yrotation Zrotation
					End Site
					{
						OFFSET 0.000000 20.427315 0.000000
					}
				}
				JOINT Hood
				{
					OFFSET 0.000000 18.754097 -10.431000
					CHANNELS 3 Xrotation Yrotation Zrotation
					JOINT Hood1
					{
						OFFSET 0.000000 -5.011002 -7.685901
						CHANNELS 3 Xrotation Yrotation Zrotation
						End Site
						{
							OFFSET 0.000000 9.175140 0.000000
						}
					}
				}
				JOINT LHoodieString
				{
					OFFSET 5.250500 16.397697 3.089900
					CHANNELS 3 Xrotation Yrotation Zrotation
					JOINT LHoodieString1
					{
						OFFSET 0.257700 -6.364304 3.694600
						CHANNELS 3 Xrotation Yrotation Zrotation
						JOINT LHoodieString2
						{
							OFFSET 0.000000 -9.643799 2.679100
							CHANNELS 3 Xrotation Yrotation Zrotation
							End Site
							{
								OFFSET 0.000000 10.009018 0.000000
							}
						}
					}
				}
				JOINT RHoodieString
				{
					OFFSET -5.250500 16.397697 3.089900
					CHANNELS 3 Xrotation Yrotation Zrotation
					JOINT RHoodieString1
					{
						OFFSET -0.257700 -6.364304 3.694600
						CHANNELS 3 Xrotation Yrotation Zrotation
						JOINT RHoodieString2
						{
							OFFSET 0.000000 -9.643799 2.679100
							CHANNELS 3 Xrotation Yrotation Zrotation
							End Site
							{
								OFFSET 0.000000 10.009018 0.000000
							}
						}
					}
				}
			}
			JOINT LBackpack_Strap
			{
				OFFSET 15.223200 -7.719803 -6.610900
				CHANNELS 3 Xrotation Yrotation Zrotation
				End Site
				{
					OFFSET 0.000000 16.040596 0.000000
				}
			}
			JOINT RBackpack_Strap
			{
				OFFSET -15.223000 -7.719803 -6.610900
				CHANNELS 3 Xrotation Yrotation Zrotation
				End Site
				{
					OFFSET 0.000000 16.040596 0.000000
				}
			}
		}
	}
	JOINT BoyFacialAnim_Joint
	{
		OFFSET 1.000000 -82.208099 -1.550900
		CHANNELS 3 Xrotation Yrotation Zrotation
		End Site
		{
			OFFSET 0.000000 30.012791 0.000000
		}
	}
}
MOTION
Frames: 5
Frame Time: 0.033333
0.111258 81.688675 0.019236 -6.932210 -21.825101 -0.724174 -0.000000 0.000001 -0.000000 -12.505032 2.913325 3.112256 16.877947 9.693802 3.647637 4.193082 0.502140 -1.704510 -0.000000 -0.000000 -0.000000 -0.000000 -0.000000 0.000000 -0.000000 0.000000 -0.000001 2.346330 -15.079106 -8.351044 15.375753 -9.932852 -4.057205 -5.306362 -26.715793 11.034907 0.000000 -0.000001 -0.000000 0.000000 -0.000001 -0.000000 -0.000001 0.000003 0.000000 2.837094 0.797672 0.197995 5.530162 1.571274 -0.093810 5.527184 1.581765 -0.034144 -7.181226 4.794656 1.459918 9.124387 9.117327 -3.826797 0.000001 0.000000 -0.000000 0.000001 0.000000 -0.000000 0.000001 0.000000 -0.000000 0.676672 9.297580 -11.037747 14.646214 -51.229605 -39.557334 -0.000393 -84.518038 -0.000357 -19.057157 -15.560084 59.850407 12.212226 6.036514 -8.712876 5.975222 12.647530 1.348330 -0.000000 0.000000 0.000000 1.489945 6.219134 -46.026271 4.918536 5.776527 -80.813432 -0.000000 0.000000 -0.000002 3.032982 7.465347 -65.121933 3.601271 5.402613 -67.351075 0.000000 -0.000001 -0.000002 3.883768 7.836702 -69.918065 3.412218 5.320149 -65.328143 -0.000002 0.000000 0.000001 3.189719 7.690042 -75.471439 2.279016 4.637169 -52.326434 -0.000000 -0.000000 0.000005 -0.000000 -0.000001 0.000000 -3.090287 12.138068 11.052814 -2.029710 58.791331 39.905954 0.000036 83.388789 -0.000074 -45.759877 6.532719 -43.123840 32.130607 38.912062 9.291978 20.823906 -37.088849 -0.292973 0.000003 -0.000000 -0.000000 2.212416 -6.210706 57.584929 1.992937 -3.821202 55.075510 -0.000000 0.000001 0.000002 3.961943 -6.871842 80.768025 3.253776 -4.441127 72.443404 0.000002 0.000001 0.000003 5.086157 -6.916483 94.647919 2.177016 -3.943070 57.794028 -0.000000 0.000000 0.000000 4.021092 -6.881313 82.190965 2.455250 -4.104795 61.757355 -0.000002 -0.000000 -0.000001 -0.000001 0.000001 -0.000000 -0.000000 -0.000001 0.000001 -0.000000 -0.000001 0.000001 -0.000000 -0.000001 0.000001 -0.000000 -0.000001 0.000001 -0.000000 -0.000001 0.000000 -0.000000 0.000001 0.000000 -0.000000 -0.000001 0.000001 -0.000000 -0.000001 0.000000 -0.000000 0.000001 0.000000 0.000000 -0.000001 0.000000 0.000000 -0.000001 0.000000 -0.000000 0.000001 -0.000000 
0.092366 81.690712 0.012700 -6.933813 -21.860762 -0.737704 0.000000 -0.000002 -0.000000 -12.493173 2.919855 3.140457 16.866626 9.695213 3.653737 4.194572 0.512781 -1.713600 -0.000000 0.000001 -0.000000 -0.000000 0.000001 -0.000000 0.000000 0.000000 -0.000000 2.347511 -15.075592 -8.334533 15.373347 -9.935992 -4.041148 -5.323314 -26.672927 11.003566 0.000000 0.000000 0.000000 0.000000 0.000000 0.000000 0.000000 -0.000000 0.000000 2.831291 0.793736 0.209738 5.520083 1.564722 -0.072000 5.516931 1.575184 -0.012595 -7.154706 4.777329 1.499975 9.113193 9.145767 -3.830125 -0.000000 0.000000 -0.000000 -0.000000 0.000000 -0.000000 -0.000000 0.000000 -0.000000 0.675090 9.229345 -11.030170 14.612758 -51.144624 -39.628659 -0.000180 -84.635456 -0.000187 -19.044410 -15.397808 59.866820 12.212226 6.036513 -8.712877 5.975225 12.647530 1.348329 0.000001 0.000001 -0.000001 1.489948 6.219134 -46.026271 4.918535 5.776528 -80.813432 -0.000001 -0.000001 -0.000000 3.032983 7.465346 -65.121926 3.601268 5.402613 -67.351075 0.000001 0.000000 0.000000 3.883769 7.836701 -69.918065 3.412215 5.320149 -65.328143 -0.000001 -0.000000 -0.000002 3.189719 7.690038 -75.471439 2.279017 4.637168 -52.326434 -0.000000 0.000000 0.000002 -0.000000 0.000001 0.000001 -3.096569 12.101462 11.094654 -1.487108 58.981702 39.109762 -0.000349 83.447085 0.000374 -46.165921 6.681131 -43.313464 32.130610 38.912059 9.291978 20.823910 -37.088849 -0.292984 -0.000002 0.000001 -0.000000 2.212416 -6.210707 57.584929 1.992937 -3.821201 55.075507 -0.000000 -0.000000 -0.000000 3.961944 -6.871842 80.768025 3.253776 -4.441128 72.443404 0.000002 0.000000 0.000005 5.086155 -6.916486 94.647919 2.177017 -3.943069 57.794028 0.000000 0.000001 0.000006 4.021092 -6.881312 82.190965 2.455252 -4.104797 61.757348 -0.000000 -0.000001 0.000004 -0.000001 -0.000002 -0.000002 0.000001 -0.000001 -0.000000 0.000001 -0.000001 -0.000000 0.000001 -0.000001 -0.000000 0.000001 -0.000001 -0.000000 0.000001 -0.000001 -0.000000 0.000001 0.000000 -0.000000 0.000001 -0.000001 -0.000000 0.000001 -0.000001 -0.000000 0.000001 0.000000 -0.000000 0.000000 0.000000 -0.000000 0.000000 0.000000 -0.000000 0.000000 -0.000002 -0.000000 
0.070928 81.692345 0.011327 -6.943261 -21.904179 -0.760552 0.000000 0.000001 -0.000000 -12.468568 2.930236 3.179685 16.855754 9.693769 3.661276 4.192643 0.533017 -1.751021 -0.000000 0.000001 -0.000001 -0.000000 0.000001 -0.000001 0.000000 0.000000 0.000000 2.369852 -15.069643 -8.306412 15.357786 -9.937760 -4.032489 -5.343586 -26.636054 10.978189 -0.000000 -0.000000 -0.000000 -0.000000 -0.000000 -0.000000 0.000001 -0.000000 0.000001 2.826368 0.793566 0.214875 5.510902 1.564967 -0.059003 5.507652 1.575369 0.000186 -7.141972 4.762240 1.541316 9.113392 9.128164 -3.792135 0.000001 -0.000000 -0.000000 0.000001 -0.000000 -0.000000 0.000001 -0.000000 -0.000000 0.672383 9.182662 -11.009207 14.503955 -51.051026 -39.811516 0.000117 -84.723907 0.000125 -19.004605 -15.260033 59.844519 12.212226 6.036512 -8.712876 5.975222 12.647529 1.348329 0.000003 0.000001 -0.000001 1.489946 6.219134 -46.026271 4.918538 5.776528 -80.813432 -0.000001 -0.000001 0.000003 3.032982 7.465347 -65.121926 3.601268 5.402611 -67.351082 0.000001 -0.000001 0.000000 3.883768 7.836701 -69.918065 3.412215 5.320148 -65.328150 0.000001 -0.000000 0.000001 3.189719 7.690040 -75.471439 2.279016 4.637170 -52.326431 0.000000 0.000001 0.000007 -0.000001 -0.000000 -0.000001 -3.098169 12.107772 11.101517 -1.128368 59.098266 38.565642 0.000599 83.488244 -0.000580 -46.466726 6.774962 -43.444634 32.130607 38.912059 9.291978 20.823910 -37.088853 -0.292977 -0.000001 -0.000002 0.000001 2.212413 -6.210707 57.584929 1.992936 -3.821202 55.075510 -0.000000 0.000000 0.000000 3.961942 -6.871839 80.768025 3.253776 -4.441129 72.443404 0.000001 0.000000 -0.000000 5.086155 -6.916485 94.647919 2.177017 -3.943070 57.794028 -0.000000 -0.000001 0.000004 4.021090 -6.881312 82.190965 2.455249 -4.104801 61.757348 -0.000000 -0.000001 0.000000 -0.000003 0.000002 -0.000002 -0.000001 0.000002 -0.000001 -0.000001 0.000002 -0.000001 -0.000001 0.000002 -0.000001 -0.000001 0.000002 -0.000001 -0.000001 0.000002 -0.000001 -0.000000 0.000001 -0.000000 -0.000001 0.000002 -0.000001 -0.000001 0.000002 -0.000001 -0.000000 0.000001 -0.000000 0.000000 -0.000003 -0.000000 0.000000 -0.000003 -0.000000 0.000000 0.000001 -0.000000 
0.050840 81.693771 0.015300 -6.965301 -21.946207 -0.789162 0.000000 0.000000 -0.000000 -12.438948 2.943820 3.216716 16.871874 9.695387 3.665372 4.165130 0.551224 -1.761937 -0.000000 -0.000000 -0.000001 -0.000000 -0.000000 -0.000000 0.000000 0.000002 -0.000000 2.409075 -15.068736 -8.278823 15.336415 -9.939792 -4.026969 -5.358293 -26.595278 10.954029 -0.000000 -0.000001 0.000000 -0.000000 -0.000001 0.000000 0.000001 -0.000000 -0.000000 2.820534 0.800876 0.216374 5.500882 1.581088 -0.052618 5.497638 1.591410 0.006074 -7.136884 4.748021 1.568763 9.127890 9.061358 -3.724811 0.000001 0.000000 -0.000000 0.000001 0.000000 -0.000000 0.000001 0.000000 -0.000000 0.673374 9.165975 -11.013914 14.376571 -50.988001 -40.010084 0.000235 -84.766561 0.000229 -18.967603 -15.147213 59.780698 12.212231 6.036513 -8.712877 5.975222 12.647529 1.348330 0.000000 -0.000000 -0.000001 1.489947 6.219136 -46.026271 4.918537 5.776528 -80.813432 -0.000000 0.000001 0.000000 3.032983 7.465346 -65.121926 3.601269 5.402611 -67.351075 0.000001 0.000000 0.000000 3.883770 7.836701 -69.918065 3.412217 5.320149 -65.328150 -0.000001 -0.000001 0.000001 3.189720 7.690044 -75.471439 2.279015 4.637167 -52.326431 -0.000000 0.000000 0.000003 0.000000 -0.000001 -0.000001 -3.090170 12.190257 11.041594 -1.046333 59.051787 38.413325 0.000398 83.534996 -0.000440 -46.609508 6.789985 -43.510675 32.130607 38.912059 9.291978 20.823906 -37.088849 -0.292976 -0.000001 -0.000000 -0.000000 2.212417 -6.210706 57.584929 1.992937 -3.821203 55.075514 -0.000000 -0.000000 0.000002 3.961943 -6.871840 80.768025 3.253776 -4.441129 72.443404 0.000002 0.000001 0.000003 5.086156 -6.916485 94.647919 2.177017 -3.943070 57.794028 -0.000000 0.000000 0.000004 4.021092 -6.881311 82.190965 2.455249 -4.104799 61.757355 -0.000001 -0.000000 0.000002 -0.000002 0.000001 -0.000002 0.000000 -0.000001 0.000000 0.000000 -0.000001 0.000000 0.000000 -0.000001 0.000000 0.000000 -0.000001 0.000000 0.000000 -0.000001 0.000000 -0.000000 -0.000001 0.000000 0.000000 -0.000001 0.000000 0.000000 -0.000001 0.000000 -0.000000 -0.000001 0.000000 0.000000 -0.000001 0.000000 0.000000 -0.000001 0.000000 0.000000 0.000000 -0.000000 
0.031674 81.693115 0.024304 -6.995599 -21.981661 -0.809294 -0.000000 0.000002 0.000000 -12.400995 2.956038 3.242518 16.893435 9.695107 3.664590 4.134155 0.569322 -1.779722 0.000000 0.000000 -0.000001 0.000000 0.000000 -0.000000 0.000000 0.000001 0.000001 2.447358 -15.074893 -8.267513 15.332033 -9.941225 -4.026477 -5.365174 -26.563338 10.940709 -0.000000 0.000001 -0.000000 -0.000000 0.000001 -0.000000 -0.000001 0.000001 0.000002 2.817645 0.809687 0.214547 5.495529 1.598457 -0.055600 5.492313 1.608754 0.002953 -7.132419 4.739129 1.585767 9.133914 8.996005 -3.664525 0.000000 0.000000 -0.000000 0.000000 0.000000 -0.000000 0.000000 0.000000 -0.000000 0.676471 9.185226 -11.039409 14.242068 -50.929063 -40.215081 0.000156 -84.794463 0.000118 -18.924803 -15.056401 59.690881 12.212225 6.036511 -8.712875 5.975227 12.647530 1.348330 0.000002 0.000000 0.000000 1.489945 6.219134 -46.026271 4.918537 5.776529 -80.813425 -0.000000 0.000000 -0.000002 3.032981 7.465346 -65.121926 3.601269 5.402611 -67.351075 0.000002 -0.000001 0.000002 3.883767 7.836701 -69.918065 3.412218 5.320149 -65.328150 -0.000001 -0.000002 0.000003 3.189718 7.690041 -75.471439 2.279016 4.637168 -52.326434 0.000001 0.000001 0.000002 -0.000001 -0.000001 -0.000000 -3.085343 12.246807 11.003714 -0.993244 59.033305 38.302157 0.000288 83.556983 -0.000327 -46.713569 6.775721 -43.545994 32.130603 38.912059 9.291978 20.823911 -37.088853 -0.292983 0.000004 -0.000001 -0.000001 2.212414 -6.210709 57.584929 1.992938 -3.821203 55.075517 -0.000001 -0.000000 0.000005 3.961941 -6.871841 80.768025 3.253777 -4.441126 72.443404 0.000001 0.000000 0.000003 5.086154 -6.916485 94.647919 2.177016 -3.943071 57.794028 -0.000001 0.000000 0.000000 4.021091 -6.881311 82.190965 2.455251 -4.104799 61.757348 -0.000000 -0.000001 0.000002 -0.000003 -0.000002 -0.000002 -0.000000 0.000001 -0.000000 -0.000000 0.000001 -0.000000 -0.000000 0.000001 -0.000000 -0.000000 0.000001 -0.000000 -0.000000 0.000001 -0.000000 -0.000000 -0.000001 -0.000000 -0.000000 0.000001 -0.000000 -0.000000 0.000001 -0.000000 -0.000000 -0.000001 -0.000000 -0.000000 -0.000000 0.000000 -0.000000 -0.000000 0.000000 -0.000000 0.000002 0.000000 
